<?xml version="1.0" encoding="UTF-8" standalone="no"?>
<!DOCTYPE svg PUBLIC "-//W3C//DTD SVG 1.1//EN" "http://www.w3.org/Graphics/SVG/1.1/DTD/svg11.dtd">
<svg width="100%" height="100%" viewBox="0 0 100 100" version="1.1" xmlns="http://www.w3.org/2000/svg" xmlns:xlink="http://www.w3.org/1999/xlink" xml:space="preserve" xmlns:serif="http://www.serif.com/" style="fill-rule:evenodd;clip-rule:evenodd;stroke-linejoin:round;stroke-miterlimit:2;">
    <circle cx="50" cy="50" r="50" style="fill:rgb(0,48,60);"/>
    <g transform="matrix(1,0,0,1,0,-6.38589)">
        <g transform="matrix(-1,-1.22465e-16,1.22465e-16,-1,97.0988,130.37)">
            <path d="M47.099,45.556L76.667,73.827L17.531,73.827L47.099,45.556Z" style="fill:rgb(255,242,0);"/>
            <path d="M17.285,76.408L17.04,76.373L16.801,76.315L16.568,76.234L16.344,76.132L16.13,76.009L15.929,75.866L15.743,75.704L15.572,75.526L15.42,75.332L15.286,75.125L15.173,74.906L15.081,74.677L15.012,74.44L14.965,74.198L14.941,73.953L14.941,73.706L14.964,73.461L15.011,73.219L15.08,72.982L15.171,72.753L15.284,72.534L15.417,72.326L15.569,72.132L15.739,71.953L45.307,43.682L45.494,43.52L45.695,43.376L45.909,43.252L46.134,43.149L46.367,43.068L46.607,43.01L46.852,42.975L47.099,42.963L47.346,42.975L47.59,43.01L47.83,43.068L48.064,43.149L48.289,43.252L48.503,43.376L48.704,43.52L48.89,43.682L78.458,71.953L78.628,72.132L78.78,72.326L78.914,72.534L79.026,72.753L79.118,72.982L79.187,73.219L79.233,73.461L79.256,73.706L79.256,73.953L79.233,74.198L79.186,74.44L79.116,74.677L79.024,74.906L78.911,75.125L78.778,75.332L78.625,75.526L78.455,75.704L78.269,75.866L78.068,76.009L77.854,76.132L77.63,76.234L77.397,76.315L77.157,76.373L76.913,76.408L76.667,76.42L17.531,76.42L17.285,76.408ZM47.099,45.556L17.531,73.827L76.667,73.827L47.099,45.556Z" style="fill:rgb(255,242,0);"/>
        </g>
        <g transform="matrix(0.871484,0,0,0.877624,6.10302,6.91955)">
            <rect x="38.272" y="33.086" width="24.198" height="23.457" style="fill:rgb(255,242,0);"/>
            <path d="M62.636,30.137L62.802,30.151L62.967,30.174L63.131,30.206L63.293,30.248L63.452,30.298L63.608,30.357L63.76,30.425L63.908,30.501L64.052,30.585L64.191,30.677L64.324,30.777L64.451,30.884L64.573,30.998L64.687,31.118L64.795,31.245L64.895,31.377L64.988,31.515L65.073,31.657L65.149,31.805L65.218,31.956L65.277,32.111L65.328,32.269L65.369,32.429L65.402,32.592L65.425,32.756L65.439,32.921L65.444,33.086L65.444,56.543L65.439,56.709L65.425,56.874L65.402,57.038L65.369,57.201L65.328,57.361L65.277,57.519L65.218,57.674L65.149,57.825L65.073,57.972L64.988,58.115L64.895,58.253L64.795,58.385L64.687,58.512L64.573,58.632L64.451,58.746L64.324,58.853L64.191,58.952L64.052,59.045L63.908,59.129L63.76,59.205L63.608,59.272L63.452,59.332L63.293,59.382L63.131,59.423L62.967,59.456L62.802,59.479L62.636,59.493L62.469,59.497L38.272,59.497L38.105,59.493L37.939,59.479L37.773,59.456L37.61,59.423L37.448,59.382L37.289,59.332L37.133,59.272L36.981,59.205L36.833,59.129L36.689,59.045L36.55,58.952L36.417,58.853L36.289,58.746L36.168,58.632L36.053,58.512L35.946,58.385L35.845,58.253L35.753,58.115L35.668,57.972L35.591,57.825L35.523,57.674L35.464,57.519L35.413,57.361L35.371,57.201L35.339,57.038L35.315,56.874L35.301,56.709L35.297,56.543L35.297,33.086L35.301,32.921L35.315,32.756L35.339,32.592L35.371,32.429L35.413,32.269L35.464,32.111L35.523,31.956L35.591,31.805L35.668,31.657L35.753,31.515L35.845,31.377L35.946,31.245L36.053,31.118L36.168,30.998L36.289,30.884L36.417,30.777L36.55,30.677L36.689,30.585L36.833,30.501L36.981,30.425L37.133,30.357L37.289,30.298L37.448,30.248L37.61,30.206L37.773,30.174L37.939,30.151L38.105,30.137L38.272,30.132L62.469,30.132L62.636,30.137ZM38.272,33.086L38.272,56.543L62.469,56.543L62.469,33.086L38.272,33.086Z" style="fill:rgb(255,242,0);"/>
        </g>
    </g>
</svg>
