<?xml version="1.0" encoding="UTF-8" standalone="no"?>
<svg
   xmlns:dc="http://purl.org/dc/elements/1.1/"
   xmlns:cc="http://creativecommons.org/ns#"
   xmlns:rdf="http://www.w3.org/1999/02/22-rdf-syntax-ns#"
   xmlns:svg="http://www.w3.org/2000/svg"
   xmlns="http://www.w3.org/2000/svg"
   xmlns:sodipodi="http://sodipodi.sourceforge.net/DTD/sodipodi-0.dtd"
   xmlns:inkscape="http://www.inkscape.org/namespaces/inkscape"
   id="Ebene_1"
   data-name="Ebene 1"
   viewBox="0 0 358.40118 138.69109"
   version="1.1"
   sodipodi:docname="logo.svg"
   inkscape:version="0.92.3 (2405546, 2018-03-11)"
   width="358.40118"
   height="138.69109">
  <metadata
     id="metadata139">
    <rdf:RDF>
      <cc:Work
         rdf:about="">
        <dc:format>image/svg+xml</dc:format>
        <dc:type
           rdf:resource="http://purl.org/dc/dcmitype/StillImage" />
        <dc:title>Zeichenfläche 1 Kopie 5</dc:title>
      </cc:Work>
    </rdf:RDF>
  </metadata>
  <sodipodi:namedview
     pagecolor="#ffffff"
     bordercolor="#666666"
     borderopacity="1"
     objecttolerance="10"
     gridtolerance="10"
     guidetolerance="10"
     inkscape:pageopacity="0"
     inkscape:pageshadow="2"
     inkscape:window-width="3607"
     inkscape:window-height="2037"
     id="namedview137"
     showgrid="false"
     inkscape:zoom="2.6488445"
     inkscape:cx="167.78697"
     inkscape:cy="24.415924"
     inkscape:window-x="0"
     inkscape:window-y="0"
     inkscape:window-maximized="0"
     inkscape:current-layer="Ebene_1"
     fit-margin-left="24"
     fit-margin-top="24"
     fit-margin-bottom="24"
     fit-margin-right="24" />
  <defs
     id="defs4">
    <style
       id="style2">.cls-1{fill:#01323d;}.cls-2{fill:#fce500;}.cls-3{fill:#4a4a49;}.cls-4{fill:none;}</style>
  </defs>
  <title
     id="title6">Zeichenfläche 1 Kopie 5</title>
  <path
     class="cls-1"
     d="m 64.551208,50.030721 a 5.76,5.76 0 0 1 -5.72,5.62 h -2.55 v 28.47 a 5.63,5.63 0 0 1 5.62,5.72 5.54,5.54 0 0 1 -5.62,5.61 11.37,11.37 0 0 1 -11.33,-11.33 v -28.47 h -3 a 5.6,5.6 0 0 1 -5.61,-5.62 5.53,5.53 0 0 1 5.61,-5.61 h 3 v -14.8 a 5.62,5.62 0 0 1 5.71,-5.62 5.54,5.54 0 0 1 5.61,5.62 v 14.8 h 2.55 a 5.68,5.68 0 0 1 5.73,5.61 z"
     id="path8"
     inkscape:connector-curvature="0"
     style="fill:#01323d" />
  <path
     class="cls-1"
     d="m 122.53121,70.040721 v 20 a 5.45,5.45 0 0 1 -5.41,5.41 5.54,5.54 0 0 1 -5.31,-4.38 23.22,23.22 0 0 1 -13.580002,4.38 23.68,23.68 0 0 1 -17.35,-7.45 26.1,26.1 0 0 1 -6.94,-18 25.78,25.78 0 0 1 6.94,-18 23.52,23.52 0 0 1 17.35,-7.65 23.24,23.24 0 0 1 13.580002,4.49 5.54,5.54 0 0 1 5.31,-4.49 5.47,5.47 0 0 1 5.41,5.51 z m -10.82,0 a 15,15 0 0 0 -4,-10.52 12.64,12.64 0 0 0 -9.500002,-4.18 12.33,12.33 0 0 0 -9.49,4.18 15,15 0 0 0 -3.86,10.52 15.3,15.3 0 0 0 3.88,10.51 12.87,12.87 0 0 0 9.49,4 13.2,13.2 0 0 0 9.500002,-4 15.37,15.37 0 0 0 3.98,-10.51 z"
     id="path10"
     inkscape:connector-curvature="0"
     style="fill:#01323d" />
  <path
     class="cls-1"
     d="m 138.96121,70.040721 c 0,-14.19 11.84,-25.52 25.93,-25.62 a 26.9,26.9 0 0 1 16.23,5.61 5.62,5.62 0 0 1 1.12,7.56 5.44,5.44 0 0 1 -7.65,1 16.3,16.3 0 0 0 -9.7,-3.27 c -8.27,0 -15.11,6.84 -15.11,14.7 0,7.86 6.84,14.6 15.11,14.6 a 16.56,16.56 0 0 0 9.7,-3.27 5.55,5.55 0 0 1 7.65,1.12 5.63,5.63 0 0 1 -1.12,7.55 28.09,28.09 0 0 1 -16.23,5.41 c -14.09,0.02 -25.93,-11.41 -25.93,-25.39 z"
     id="path12"
     inkscape:connector-curvature="0"
     style="fill:#01323d" />
  <path
     class="cls-1"
     d="M 200.82121,109.18072 V 49.830721 a 5.45,5.45 0 0 1 5.41,-5.41 5.59,5.59 0 0 1 5.61,4.18 25.92,25.92 0 0 1 13.89,-4.18 c 13.57,0 24.7,11.63 24.7,25.62 0,13.99 -11.13,25.31 -24.7,25.31 a 23.61,23.61 0 0 1 -13.68,-4.17 v 17.999999 a 5.76,5.76 0 0 1 -5.82,5.51 5.6,5.6 0 0 1 -5.41,-5.51 z m 11.23,-39.089999 c 0,4 1.33,7.86 4,10.21 a 12.65,12.65 0 0 0 9.7,4.28 13.06,13.06 0 0 0 9.59,-4.28 14.88,14.88 0 0 0 4,-10.21 15.73,15.73 0 0 0 -4,-10.31 13.3,13.3 0 0 0 -9.59,-4.19 12.88,12.88 0 0 0 -9.7,4.19 14.34,14.34 0 0 0 -4,10.26 z"
     id="path14"
     inkscape:connector-curvature="0"
     style="fill:#01323d" />
  <path
     class="cls-1"
     d="m 276.15121,31.660721 a 5.51,5.51 0 0 1 -5.49,5.61 5.57,5.57 0 0 1 -5.51,-5.61 v -2.14 a 5.49,5.49 0 0 1 5.51,-5.52 5.43,5.43 0 0 1 5.51,5.52 z m 0,18.47 v 39.81 a 5.43,5.43 0 0 1 -5.49,5.51 5.49,5.49 0 0 1 -5.51,-5.51 v -39.76 a 5.45,5.45 0 0 1 5.51,-5.66 5.39,5.39 0 0 1 5.49,5.66 z"
     id="path16"
     inkscape:connector-curvature="0"
     style="fill:#01323d" />
  <path
     class="cls-1"
     d="m 290.14121,70.040721 c 0,-14.19 11.84,-25.52 25.92,-25.62 a 26.88,26.88 0 0 1 16.23,5.61 5.62,5.62 0 0 1 1.13,7.56 5.45,5.45 0 0 1 -7.66,1 16.28,16.28 0 0 0 -9.7,-3.27 c -8.27,0 -15.1,6.84 -15.1,14.7 0,7.86 6.83,14.6 15.1,14.6 a 16.51,16.51 0 0 0 9.7,-3.27 5.56,5.56 0 0 1 7.66,1.12 5.64,5.64 0 0 1 -1.13,7.55 28.07,28.07 0 0 1 -16.23,5.41 c -14.08,0.02 -25.92,-11.41 -25.92,-25.39 z"
     id="path18"
     inkscape:connector-curvature="0"
     style="fill:#01323d" />
  <path
     class="cls-2"
     d="m 25.891208,76.180721 a 6.58,6.58 0 0 1 -1.88,-4.93 6.47,6.47 0 0 1 6.83,-6.84 6.47,6.47 0 0 1 6.82,6.83 6.72,6.72 0 0 1 -1.88,5 6.7,6.7 0 0 1 -5,1.88 7,7 0 0 1 -4.89,-1.94 z m 0,20.37 a 6.56,6.56 0 0 1 -1.88,-4.92 6.32,6.32 0 0 1 1.88,-4.85 6.88,6.88 0 0 1 4.95,-1.78 6.89,6.89 0 0 1 5,1.78 6.36,6.36 0 0 1 1.82,4.84 6.73,6.73 0 0 1 -1.88,5 6.7,6.7 0 0 1 -5,1.88 7,7 0 0 1 -4.89,-1.96 z m 20.51,-40.9 a 6.59,6.59 0 0 1 -1.88,-4.92 6.46,6.46 0 0 1 6.84,-6.84 6.46,6.46 0 0 1 6.84,6.84 6.46,6.46 0 0 1 -6.84,6.84 7,7 0 0 1 -4.96,-1.92 z m 0,20.52 a 6.62,6.62 0 0 1 -1.88,-4.93 6.47,6.47 0 0 1 6.84,-6.84 6.84,6.84 0 1 1 0,13.68 7,7 0 0 1 -4.96,-1.9 z"
     id="path20"
     inkscape:connector-curvature="0"
     style="fill:#fce500" />
  <path
     class="cls-2"
     d="m 85.211208,57.090721 a 7,7 0 0 1 -5,-1.92 6.56,6.56 0 0 1 -1.88,-4.92 6.84,6.84 0 1 1 13.67,0 6.46,6.46 0 0 1 -6.83,6.84 z"
     id="path22"
     inkscape:connector-curvature="0"
     style="fill:#fce500" />
  <path
     class="cls-2"
     d="m 141.48121,57.290721 a 7,7 0 0 1 -4.95,-1.91 6.56,6.56 0 0 1 -1.87,-4.92 6.84,6.84 0 1 1 13.68,0 6.46,6.46 0 0 1 -6.84,6.83 z m 20.52,0 a 7,7 0 0 1 -5,-1.91 6.59,6.59 0 0 1 -1.88,-4.92 6.84,6.84 0 1 1 13.68,0 6.46,6.46 0 0 1 -6.84,6.83 z"
     id="path24"
     inkscape:connector-curvature="0"
     style="fill:#fce500" />
  <path
     class="cls-2"
     d="m 190.66121,55.860721 a 6.62,6.62 0 0 1 -1.88,-4.93 6.84,6.84 0 1 1 13.68,0 6.46,6.46 0 0 1 -6.8,6.84 7,7 0 0 1 -5,-1.91 z m 0,20.51 a 6.59,6.59 0 0 1 -1.88,-4.92 6.84,6.84 0 1 1 13.68,0 6.46,6.46 0 0 1 -6.8,6.84 7.05,7.05 0 0 1 -5,-1.92 z m 0,20.38 a 6.59,6.59 0 0 1 -1.88,-4.92 6.38,6.38 0 0 1 1.88,-4.86 7.8,7.8 0 0 1 9.92,0 6.38,6.38 0 0 1 1.88,4.86 6.46,6.46 0 0 1 -6.8,6.83 7,7 0 0 1 -5,-1.91 z m 20.52,-40.89 a 6.58,6.58 0 0 1 -1.88,-4.93 6.84,6.84 0 1 1 13.67,0 6.46,6.46 0 0 1 -6.84,6.84 7,7 0 0 1 -4.93,-1.91 z"
     id="path26"
     inkscape:connector-curvature="0"
     style="fill:#fce500" />
  <path
     class="cls-2"
     d="m 245.59121,75.890721 a 6.59,6.59 0 0 1 -1.88,-4.92 6.84,6.84 0 1 1 13.68,0 6.46,6.46 0 0 1 -6.84,6.84 7,7 0 0 1 -4.96,-1.92 z m 20.52,-20.51 a 6.56,6.56 0 0 1 -1.88,-4.92 6.84,6.84 0 1 1 13.67,0 6.46,6.46 0 0 1 -6.84,6.83 7,7 0 0 1 -4.95,-1.91 z"
     id="path28"
     inkscape:connector-curvature="0"
     style="fill:#fce500" />
  <path
     class="cls-2"
     d="m 305.19121,57.290721 a 7,7 0 0 1 -5,-1.91 6.56,6.56 0 0 1 -1.88,-4.92 6.84,6.84 0 1 1 13.67,0 6.46,6.46 0 0 1 -6.83,6.83 z m 20.51,0 a 7,7 0 0 1 -5,-1.91 6.59,6.59 0 0 1 -1.88,-4.92 6.84,6.84 0 1 1 13.68,0 6.46,6.46 0 0 1 -6.84,6.83 z"
     id="path30"
     inkscape:connector-curvature="0"
     style="fill:#fce500" />
  <rect
     class="cls-4"
     x="212.05121"
     y="60.850719"
     width="27.25"
     height="16.959999"
     id="rect134"
     style="fill:none" />
</svg>
